HIERARCHY
ROOT hip
{
  OFFSET 0.00112043 5.09927 -9.65472
  CHANNELS 6 Xposition Yposition Zposition Zrotation Xrotation Yrotation
  JOINT abdomen
  {
    OFFSET 0 -1.186 -1.5018
    CHANNELS 3 Zrotation Xrotation Yrotation
    JOINT abdomen2
    {
      OFFSET 0 9.964 0.2134
      CHANNELS 3 Zrotation Xrotation Yrotation
      JOINT chest
      {
        OFFSET 0 13.134 -3.2573
        CHANNELS 3 Zrotation Xrotation Yrotation
        JOINT neck
        {
          OFFSET 0 20.686 -1.6905
          CHANNELS 3 Zrotation Xrotation Yrotation
          JOINT head
          {
            OFFSET 0 7.238 -0.1237
            CHANNELS 3 Zrotation Xrotation Yrotation
            End Site
            {
              OFFSET 0 0 0
            }
          }
        }
        JOINT lCollar
        {
          OFFSET 1.7069 20.075 5.0056
          CHANNELS 3 Zrotation Xrotation Yrotation
          JOINT lShldr
          {
            OFFSET 13.6458 -0.047 -4.849
            CHANNELS 3 Zrotation Xrotation Yrotation
            JOINT lForeArm
            {
              OFFSET 28.3255 -0.9759 2.2888
              CHANNELS 3 Zrotation Xrotation Yrotation
              JOINT lHand
              {
                OFFSET 22.1583 -0.53 10.8316
                CHANNELS 3 Zrotation Xrotation Yrotation
                JOINT lThumb1
                {
                  OFFSET 0.786 0.112 2.5817
                  CHANNELS 3 Zrotation Xrotation Yrotation
                  JOINT lThumb2
                  {
                    OFFSET 0.3601 -0.878 4.2331
                    CHANNELS 3 Zrotation Xrotation Yrotation
                    JOINT lThumb2_End
                    {
                      OFFSET 1.8127 -1.216 2.2227
                      CHANNELS 3 Zrotation Xrotation Yrotation
                      End Site
                      {
                        OFFSET 0.0181 -0.0122 0.0222
                      }
                    }
                  }
                }
                JOINT lCarpal1
                {
                  OFFSET 0.9571 1.114 1.7695
                  CHANNELS 3 Zrotation Xrotation Yrotation
                  JOINT lIndex1
                  {
                    OFFSET 4.1246 0.487 4.1451
                    CHANNELS 3 Zrotation Xrotation Yrotation
                    JOINT lIndex2
                    {
                      OFFSET 3.4052 -1.454 2.7682
                      CHANNELS 3 Zrotation Xrotation Yrotation
                      JOINT lIndex2_End
                      {
                        OFFSET 1.4531 -1.795 1.2713
                        CHANNELS 3 Zrotation Xrotation Yrotation
                        End Site
                        {
                          OFFSET 0.0145 -0.0179 0.0127
                        }
                      }
                    }
                  }
                  JOINT lMid1
                  {
                    OFFSET 5.6954 0.21 2.1184
                    CHANNELS 3 Zrotation Xrotation Yrotation
                    JOINT lMid2
                    {
                      OFFSET 3.9766 -1.54 2.3863
                      CHANNELS 3 Zrotation Xrotation Yrotation
                      JOINT lMid2_End
                      {
                        OFFSET 1.4042 -1.926 1.125
                        CHANNELS 3 Zrotation Xrotation Yrotation
                        End Site
                        {
                          OFFSET 0.014 -0.0193 0.0113
                        }
                      }
                    }
                  }
                }
                JOINT lCarpal2
                {
                  OFFSET 2.0956 0.66 -0.3894
                  CHANNELS 3 Zrotation Xrotation Yrotation
                  JOINT lRing1
                  {
                    OFFSET 5.0395 -0.09 2.4971
                    CHANNELS 3 Zrotation Xrotation Yrotation
                    JOINT lRing2
                    {
                      OFFSET 3.7921 -1.552 1.4806
                      CHANNELS 3 Zrotation Xrotation Yrotation
                      JOINT lRing2_End
                      {
                        OFFSET 1.4655 -1.808 0.9609
                        CHANNELS 3 Zrotation Xrotation Yrotation
                        End Site
                        {
                          OFFSET 0.0147 -0.0181 0.0096
                        }
                      }
                    }
                  }
                  JOINT lPinky1
                  {
                    OFFSET 4.9141 -1.269 0.3591
                    CHANNELS 3 Zrotation Xrotation Yrotation
                    JOINT lPinky2
                    {
                      OFFSET 3.1477 -1.685 0.8462
                      CHANNELS 3 Zrotation Xrotation Yrotation
                      JOINT lPinky2_End
                      {
                        OFFSET 0.8055 -1.585 0.7955
                        CHANNELS 3 Zrotation Xrotation Yrotation
                        End Site
                        {
                          OFFSET 0.0081 -0.0158 0.008
                        }
                      }
                    }
                  }
                }
              }
            }
          }
        }
        JOINT rCollar
        {
          OFFSET -1.7069 20.075 5.0056
          CHANNELS 3 Zrotation Xrotation Yrotation
          JOINT rShldr
          {
            OFFSET -13.6458 -0.047 -4.849
            CHANNELS 3 Zrotation Xrotation Yrotation
            JOINT rForeArm
            {
              OFFSET -28.3255 -0.9759 2.2888
              CHANNELS 3 Zrotation Xrotation Yrotation
              JOINT rHand
              {
                OFFSET -22.1583 -0.53 10.8316
                CHANNELS 3 Zrotation Xrotation Yrotation
                JOINT rThumb1
                {
                  OFFSET -0.786 0.112 2.5817
                  CHANNELS 3 Zrotation Xrotation Yrotation
                  JOINT rThumb2
                  {
                    OFFSET -0.3601 -0.878 4.2331
                    CHANNELS 3 Zrotation Xrotation Yrotation
                    JOINT rThumb2_End
                    {
                      OFFSET -1.8127 -1.216 2.2227
                      CHANNELS 3 Zrotation Xrotation Yrotation
                      End Site
                      {
                        OFFSET -0.0181 -0.0122 0.0222
                      }
                    }
                  }
                }
                JOINT rCarpal1
                {
                  OFFSET -0.9571 1.114 1.7695
                  CHANNELS 3 Zrotation Xrotation Yrotation
                  JOINT rIndex1
                  {
                    OFFSET -4.1246 0.487 4.1451
                    CHANNELS 3 Zrotation Xrotation Yrotation
                    JOINT rIndex2
                    {
                      OFFSET -3.4052 -1.454 2.7682
                      CHANNELS 3 Zrotation Xrotation Yrotation
                      JOINT rIndex2_End
                      {
                        OFFSET -1.4531 -1.795 1.2713
                        CHANNELS 3 Zrotation Xrotation Yrotation
                        End Site
                        {
                          OFFSET -0.0145 -0.018 0.0127
                        }
                      }
                    }
                  }
                  JOINT rMid1
                  {
                    OFFSET -5.6954 0.21 2.1184
                    CHANNELS 3 Zrotation Xrotation Yrotation
                    JOINT rMid2
                    {
                      OFFSET -3.9766 -1.54 2.3863
                      CHANNELS 3 Zrotation Xrotation Yrotation
                      JOINT rMid2_End
                      {
                        OFFSET -1.4042 -1.926 1.125
                        CHANNELS 3 Zrotation Xrotation Yrotation
                        End Site
                        {
                          OFFSET -0.014 -0.0193 0.0113
                        }
                      }
                    }
                  }
                }
                JOINT rCarpal2
                {
                  OFFSET -2.0956 0.66 -0.3894
                  CHANNELS 3 Zrotation Xrotation Yrotation
                  JOINT rRing1
                  {
                    OFFSET -5.0395 -0.09 2.4971
                    CHANNELS 3 Zrotation Xrotation Yrotation
                    JOINT rRing2
                    {
                      OFFSET -3.7921 -1.552 1.4806
                      CHANNELS 3 Zrotation Xrotation Yrotation
                      JOINT rRing2_End
                      {
                        OFFSET -1.4655 -1.808 0.9609
                        CHANNELS 3 Zrotation Xrotation Yrotation
                        End Site
                        {
                          OFFSET -0.0147 -0.0181 0.0096
                        }
                      }
                    }
                  }
                  JOINT rPinky1
                  {
                    OFFSET -4.9141 -1.269 0.3592
                    CHANNELS 3 Zrotation Xrotation Yrotation
                    JOINT rPinky2
                    {
                      OFFSET -3.1477 -1.685 0.8462
                      CHANNELS 3 Zrotation Xrotation Yrotation
                      JOINT rPinky2_End
                      {
                        OFFSET -0.8055 -1.585 0.7955
                        CHANNELS 3 Zrotation Xrotation Yrotation
                        End Site
                        {
                          OFFSET -0.0081 -0.0158 0.008
                        }
                      }
                    }
                  }
                }
              }
            }
          }
        }
      }
    }
  }
  JOINT lThigh
  {
    OFFSET 8.367 -8.2066 0.5982
    CHANNELS 3 Zrotation Xrotation Yrotation
    JOINT lShin
    {
      OFFSET 2.1923 -43.463 -0.4932
      CHANNELS 3 Zrotation Xrotation Yrotation
      JOINT lFoot
      {
        OFFSET 0.7333 -45.8593 -2.6451
        CHANNELS 3 Zrotation Xrotation Yrotation
        End Site
        {
          OFFSET 2.6618 -4.2699 12.3931
        }
      }
    }
  }
  JOINT rThigh
  {
    OFFSET -8.367 -8.2066 0.5982
    CHANNELS 3 Zrotation Xrotation Yrotation
    JOINT rShin
    {
      OFFSET -2.1923 -43.463 -0.4931
      CHANNELS 3 Zrotation Xrotation Yrotation
      JOINT rFoot
      {
        OFFSET -0.7333 -45.8593 -2.6451
        CHANNELS 3 Zrotation Xrotation Yrotation
        End Site
        {
          OFFSET -2.6618 -4.2699 12.3931
        }
      }
    }
  }
}
MOTION
Frames:	4
Frame Time:	0.0333333
1.73675 57.643 13.9405 0 32.9236 -0 -1.27926 -1.0165 -1.77604 -2.59001 -1.99263 -3.57516 -2.59001 -1.99262 -3.57516 -1.91271e-006 8.22754 -4.41108e-005 -0.0630123 13.7399 0.0095873 -11.2818 -4.31813 -39.7363 -39.9633 -5.07758 29.1977 -18.9672 16.0514 -40.8614 19.6794 -40.8577 -16.9266 4.96962e-016 4.96962e-016 -9.54166e-015 4.47266e-016 -5.96354e-016 -1.90833e-014 5.46658e-016 -1.09332e-015 -2.22639e-014 0 4.96962e-016 -0 3.47873e-016 -9.93923e-016 -6.36111e-015 2.98177e-016 -5.96354e-016 -1.90833e-014 4.47266e-016 9.93923e-017 -2.22639e-014 3.47873e-016 -9.93923e-016 -6.36111e-015 2.98177e-016 -5.96354e-016 -1.90833e-014 4.47266e-016 9.93923e-017 -2.22639e-014 0 4.96962e-016 -0 3.47873e-016 -9.93923e-016 -6.36111e-015 2.98177e-016 -5.96354e-016 -1.90833e-014 4.47266e-016 9.93923e-017 -2.22639e-014 3.47873e-016 -9.93923e-016 -6.36111e-015 2.98177e-016 -5.96354e-016 -1.90833e-014 4.47266e-016 9.93923e-017 -2.22639e-014 47.6255 -4.39823 -14.0615 32.4112 -3.81628 -20.2577 33.1666 19.5077 -6.72209 56.5335 -29.1409 22.4402 3.97569e-016 -1.59028e-015 -1.09332e-015 -2.08281e-031 -1.59028e-015 -7.50412e-015 1.59028e-015 -1.59028e-015 -1.39646e-014 -3.97569e-016 0 -1.19271e-015 2.38542e-015 -3.18055e-015 -7.30534e-015 -4.11045e-031 -3.18055e-015 -7.40473e-015 -2.06902e-031 -1.59028e-015 -7.45443e-015 2.38542e-015 -3.18055e-015 -7.30534e-015 -4.11045e-031 -3.18055e-015 -7.40473e-015 -2.06902e-031 -1.59028e-015 -7.45443e-015 -3.97569e-016 0 -1.19271e-015 2.38542e-015 -3.18055e-015 -7.30534e-015 -4.11045e-031 -3.18055e-015 -7.40473e-015 -2.06902e-031 -1.59028e-015 -7.45443e-015 2.38542e-015 -3.18055e-015 -7.30534e-015 -4.11045e-031 -3.18055e-015 -7.40473e-015 -2.06902e-031 -1.59028e-015 -7.45443e-015 58.7333 -17.872 21.0124 3.60597 80.5657 1.68819 -54.1049 46.3902 64.0627 -58.772 -17.845 -21.0913 -3.95159 80.5567 -1.33021 53.999 46.4418 -63.9966 
1.73679 57.6533 13.7527 0 33.3493 -0 -1.27926 -1.01651 -1.77605 -2.59001 -1.99263 -3.57516 -2.59001 -1.99262 -3.57516 -1.13195e-005 7.5925 -4.45419e-005 -0.061883 12.7181 0.009585 -11.1803 -4.50409 -39.7667 -39.97 -5.08083 29.1813 -19.0243 16.1823 -41.2244 19.9369 -40.8455 -16.6985 -2.55456e-007 -2.25818e-007 5.65229e-007 1.49089e-016 -6.95746e-016 -6.36111e-015 -4.47266e-016 1.98785e-016 -0 4.47266e-016 -9.93923e-017 -0 -2.55456e-007 -2.25818e-007 5.65229e-007 1.49089e-016 -6.95746e-016 -6.36111e-015 -4.47266e-016 1.98785e-016 -0 -2.55456e-007 -2.25818e-007 5.65229e-007 1.49089e-016 -6.95746e-016 -6.36111e-015 -4.47266e-016 1.98785e-016 -0 4.47266e-016 -9.93923e-017 -0 -2.55456e-007 -2.25818e-007 5.65229e-007 1.49089e-016 -6.95746e-016 -6.36111e-015 -4.47266e-016 1.98785e-016 -0 -2.55456e-007 -2.25818e-007 5.65229e-007 1.49089e-016 -6.95746e-016 -6.36111e-015 -4.47266e-016 1.98785e-016 -0 47.6255 -4.39823 -14.0615 32.3912 -3.82639 -20.4537 33.1666 19.5078 -6.7221 56.5335 -29.1409 22.4402 6.62086e-032 -1.59028e-015 2.38542e-015 -3.97569e-016 -1.59028e-015 -4.07509e-015 3.97569e-016 -3.18055e-015 -4.22417e-015 -7.95139e-016 1.59028e-015 2.23633e-015 1.59028e-015 -1.59028e-015 -3.8266e-015 0 0 -3.97569e-015 -7.95139e-016 -1.59028e-015 -3.97569e-015 1.59028e-015 -1.59028e-015 -3.8266e-015 0 0 -3.97569e-015 -7.95139e-016 -1.59028e-015 -3.97569e-015 -7.95139e-016 1.59028e-015 2.23633e-015 1.59028e-015 -1.59028e-015 -3.8266e-015 0 0 -3.97569e-015 -7.95139e-016 -1.59028e-015 -3.97569e-015 1.59028e-015 -1.59028e-015 -3.8266e-015 0 0 -3.97569e-015 -7.95139e-016 -1.59028e-015 -3.97569e-015 58.7589 -18.4632 21.18 3.89613 80.8691 1.43162 -54.4279 46.2381 64.2668 -58.7977 -18.437 -21.2588 -4.25393 80.8602 -1.06178 54.3236 46.29 -64.2023 
1.73682 57.6635 13.5644 0 33.7749 -0 -1.27927 -1.01652 -1.77605 -2.59002 -1.99262 -3.57518 -2.59002 -1.99264 -3.57518 -1.08524e-005 6.95711 3.09451e-006 -0.0607443 11.6931 0.00958624 -11.0788 -4.69008 -39.7967 -39.9766 -5.0841 29.1649 -19.0807 16.3135 -41.5874 20.1942 -40.8324 -16.4705 -2.48481e-016 6.95746e-016 -3.18055e-015 -4.96962e-017 5.96354e-016 -3.18055e-015 4.96962e-017 9.93923e-016 -6.36111e-015 1.49089e-016 -4.96962e-016 -3.18055e-015 9.93923e-017 -2.98177e-016 6.36111e-015 -8.44835e-016 1.2921e-015 -3.18055e-015 -7.45443e-016 5.96354e-016 -0 9.93923e-017 -2.98177e-016 6.36111e-015 -8.44835e-016 1.2921e-015 -3.18055e-015 -7.45443e-016 5.96354e-016 -0 1.49089e-016 -4.96962e-016 -3.18055e-015 9.93923e-017 -2.98177e-016 6.36111e-015 -8.44835e-016 1.2921e-015 -3.18055e-015 -7.45443e-016 5.96354e-016 -0 9.93923e-017 -2.98177e-016 6.36111e-015 -8.44835e-016 1.2921e-015 -3.18055e-015 -7.45443e-016 5.96354e-016 -0 47.6255 -4.39818 -14.0615 32.3712 -3.83642 -20.6496 33.1666 19.5077 -6.72211 56.5335 -29.1409 22.4402 3.97569e-016 0 2.43511e-015 2.6584e-006 -9.47756e-008 -1.67875e-006 -1.95844e-007 -6.10588e-007 -4.73431e-007 -3.31043e-032 7.95139e-016 2.38542e-015 1.19271e-015 7.95139e-016 -6.4605e-016 2.6584e-006 -9.47756e-008 -1.67875e-006 -1.95844e-007 -6.10588e-007 -4.73431e-007 1.19271e-015 7.95139e-016 -6.4605e-016 2.6584e-006 -9.47756e-008 -1.67875e-006 -1.95844e-007 -6.10588e-007 -4.73431e-007 -3.31043e-032 7.95139e-016 2.38542e-015 1.19271e-015 7.95139e-016 -6.4605e-016 2.6584e-006 -9.47756e-008 -1.67875e-006 -1.95844e-007 -6.10588e-007 -4.73431e-007 1.19271e-015 7.95139e-016 -6.4605e-016 2.6584e-006 -9.47756e-008 -1.67875e-006 -1.95844e-007 -6.10588e-007 -4.73431e-007 58.7862 -19.0547 21.3484 4.20685 81.1724 1.15487 -54.7497 46.0855 64.4697 -58.8252 -19.0294 -21.4271 -4.5775 81.1636 -0.772521 54.6469 46.1377 -64.4067 
1.73686 57.6738 13.3756 0 34.2006 -0 -1.27927 -1.01651 -1.77605 -2.59002 -1.99263 -3.57518 -2.59002 -1.99263 -3.57518 6.67081e-006 6.32049 5.07374e-006 -0.0595965 10.665 0.00959336 -10.9775 -4.87615 -39.8264 -39.9833 -5.08735 29.1486 -19.1362 16.445 -41.9506 20.4514 -40.8186 -16.2427 9.44227e-016 7.95139e-016 -3.18055e-015 -4.47266e-016 0 -9.54166e-015 -6.4605e-016 -9.93923e-017 -1.27222e-014 9.44227e-016 5.96354e-016 -3.18055e-015 -8.44835e-016 -2.98177e-016 6.36111e-015 4.96962e-017 4.96962e-016 -1.27222e-014 -8.44835e-016 9.93923e-017 -3.18055e-015 -8.44835e-016 -2.98177e-016 6.36111e-015 4.96962e-017 4.96962e-016 -1.27222e-014 -8.44835e-016 9.93923e-017 -3.18055e-015 9.44227e-016 5.96354e-016 -3.18055e-015 -8.44835e-016 -2.98177e-016 6.36111e-015 4.96962e-017 4.96962e-016 -1.27222e-014 -8.44835e-016 9.93923e-017 -3.18055e-015 -8.44835e-016 -2.98177e-016 6.36111e-015 4.96962e-017 4.96962e-016 -1.27222e-014 -8.44835e-016 9.93923e-017 -3.18055e-015 47.6255 -4.39818 -14.0615 32.3511 -3.8464 -20.8456 33.1666 19.5078 -6.7221 56.5335 -29.1409 22.4402 1.98785e-015 -1.59028e-015 9.0447e-015 1.19271e-015 -1.59028e-015 6.11263e-015 1.98785e-015 -1.59028e-015 -2.48481e-016 7.95139e-016 0 8.94531e-015 1.19271e-015 -1.59028e-015 6.01324e-015 1.98785e-015 -2.38542e-015 2.98177e-015 1.59028e-015 -1.59028e-015 3.03147e-015 1.19271e-015 -1.59028e-015 6.01324e-015 1.98785e-015 -2.38542e-015 2.98177e-015 1.59028e-015 -1.59028e-015 3.03147e-015 7.95139e-016 0 8.94531e-015 1.19271e-015 -1.59028e-015 6.01324e-015 1.98785e-015 -2.38542e-015 2.98177e-015 1.59028e-015 -1.59028e-015 3.03147e-015 1.19271e-015 -1.59028e-015 6.01324e-015 1.98785e-015 -2.38542e-015 2.98177e-015 1.59028e-015 -1.59028e-015 3.03147e-015 58.8154 -19.6466 21.5178 4.53974 81.4754 0.856272 -55.0701 45.9324 64.6712 -58.8545 -19.6223 -21.5963 -4.92448 81.4669 -0.46022 54.9689 45.9848 -64.6097 
